<svg xmlns="http://www.w3.org/2000/svg" viewBox="0 0 720 260" role="img" aria-label="Decompilation progress over time">
<style>text{font:11px system-ui,sans-serif;fill:#666}.title{font-size:13px;font-weight:600;fill:#222}.axis{stroke:#ddd;stroke-width:1}@media (prefers-color-scheme:dark){svg{background-color:#0d1117}text{fill:#999}.title{fill:#fff}.axis{stroke:#344}}</style>
<line class="axis" x1="56" y1="224.0" x2="704" y2="224.0" opacity="0.6"/>
<text x="48" y="228.0" text-anchor="end">0.00%</text>
<line class="axis" x1="56" y1="180.0" x2="704" y2="180.0" opacity="0.6"/>
<text x="48" y="184.0" text-anchor="end">6.25%</text>
<line class="axis" x1="56" y1="136.0" x2="704" y2="136.0" opacity="0.6"/>
<text x="48" y="140.0" text-anchor="end">12.50%</text>
<line class="axis" x1="56" y1="92.0" x2="704" y2="92.0" opacity="0.6"/>
<text x="48" y="96.0" text-anchor="end">18.75%</text>
<line class="axis" x1="56" y1="48.0" x2="704" y2="48.0" opacity="0.6"/>
<text x="48" y="52.0" text-anchor="end">25.00%</text>
<polygon points="56.0,222.2 122.4,222.2 122.4,222.2 122.4,222.2 122.4,222.2 141.3,222.2 141.3,222.2 199.3,222.2 199.3,222.2 203.9,222.2 203.9,222.2 212.0,222.2 212.0,222.2 212.8,222.2 212.8,222.2 213.6,222.2 213.6,222.2 214.2,222.2 214.2,222.2 216.5,222.2 216.5,222.2 236.6,222.2 236.6,222.2 241.8,222.2 241.8,222.2 244.8,222.2 244.8,222.2 246.0,222.2 246.0,222.2 306.7,222.2 306.7,222.2 345.1,222.2 345.1,222.2 347.0,222.2 347.0,222.2 348.1,222.2 348.1,222.2 351.0,222.2 351.0,222.2 351.9,222.2 351.9,222.2 372.3,222.2 372.3,222.2 496.0,222.2 496.0,222.2 505.0,222.2 505.0,222.2 510.0,222.2 510.0,222.2 528.5,222.2 528.5,222.2 532.4,222.2 532.4,222.2 534.7,222.2 534.7,222.2 537.1,222.2 537.1,222.2 544.8,222.2 544.8,222.2 547.3,222.2 547.3,222.2 564.6,222.2 564.6,222.2 565.9,222.2 565.9,222.2 567.7,222.2 567.7,222.2 582.1,222.2 582.1,222.2 582.5,222.2 582.5,222.2 583.3,222.2 583.3,222.2 584.4,222.2 584.4,222.2 585.0,222.2 585.0,222.2 587.9,222.2 587.9,222.2 589.0,222.2 589.0,222.2 592.2,222.2 592.2,222.2 593.5,222.2 593.5,222.2 594.5,222.2 594.5,222.2 595.8,222.2 595.8,222.2 597.9,222.2 597.9,222.2 598.5,222.2 598.5,222.2 599.1,222.2 599.1,222.2 601.2,222.2 601.2,222.2 604.4,222.2 604.4,222.2 606.7,222.2 606.7,221.3 652.7,221.3 652.7,221.3 656.0,221.3 656.0,221.1 704.0,221.1 704.0,224.0 656.0,224.0 656.0,224.0 652.7,224.0 652.7,224.0 606.7,224.0 606.7,224.0 604.4,224.0 604.4,224.0 601.2,224.0 601.2,224.0 599.1,224.0 599.1,224.0 598.5,224.0 598.5,224.0 597.9,224.0 597.9,224.0 595.8,224.0 595.8,224.0 594.5,224.0 594.5,224.0 593.5,224.0 593.5,224.0 592.2,224.0 592.2,224.0 589.0,224.0 589.0,224.0 587.9,224.0 587.9,224.0 585.0,224.0 585.0,224.0 584.4,224.0 584.4,224.0 583.3,224.0 583.3,224.0 582.5,224.0 582.5,224.0 582.1,224.0 582.1,224.0 567.7,224.0 567.7,224.0 565.9,224.0 565.9,224.0 564.6,224.0 564.6,224.0 547.3,224.0 547.3,224.0 544.8,224.0 544.8,224.0 537.1,224.0 537.1,224.0 534.7,224.0 534.7,224.0 532.4,224.0 532.4,224.0 528.5,224.0 528.5,224.0 510.0,224.0 510.0,224.0 505.0,224.0 505.0,224.0 496.0,224.0 496.0,224.0 372.3,224.0 372.3,224.0 351.9,224.0 351.9,224.0 351.0,224.0 351.0,224.0 348.1,224.0 348.1,224.0 347.0,224.0 347.0,224.0 345.1,224.0 345.1,224.0 306.7,224.0 306.7,224.0 246.0,224.0 246.0,224.0 244.8,224.0 244.8,224.0 241.8,224.0 241.8,224.0 236.6,224.0 236.6,224.0 216.5,224.0 216.5,224.0 214.2,224.0 214.2,224.0 213.6,224.0 213.6,224.0 212.8,224.0 212.8,224.0 212.0,224.0 212.0,224.0 203.9,224.0 203.9,224.0 199.3,224.0 199.3,224.0 141.3,224.0 141.3,224.0 122.4,224.0 122.4,224.0 122.4,224.0 122.4,224.0 56.0,224.0" fill="#48d" />
<polygon points="56.0,221.6 122.4,221.6 122.4,221.3 122.4,221.3 122.4,221.3 141.3,221.3 141.3,221.1 199.3,221.1 199.3,221.1 203.9,221.1 203.9,219.7 212.0,219.7 212.0,219.3 212.8,219.3 212.8,218.7 213.6,218.7 213.6,218.5 214.2,218.5 214.2,217.7 216.5,217.7 216.5,217.4 236.6,217.4 236.6,214.9 241.8,214.9 241.8,214.2 244.8,214.2 244.8,213.2 246.0,213.2 246.0,212.9 306.7,212.9 306.7,211.9 345.1,211.9 345.1,205.3 347.0,205.3 347.0,203.4 348.1,203.4 348.1,202.6 351.0,202.6 351.0,201.6 351.9,201.6 351.9,200.4 372.3,200.4 372.3,198.7 496.0,198.7 496.0,191.6 505.0,191.6 505.0,188.4 510.0,188.4 510.0,179.9 528.5,179.9 528.5,176.4 532.4,176.4 532.4,176.4 534.7,176.4 534.7,176.4 537.1,176.4 537.1,176.4 544.8,176.4 544.8,176.4 547.3,176.4 547.3,176.4 564.6,176.4 564.6,176.4 565.9,176.4 565.9,176.4 567.7,176.4 567.7,176.4 582.1,176.4 582.1,176.4 582.5,176.4 582.5,176.4 583.3,176.4 583.3,176.4 584.4,176.4 584.4,176.4 585.0,176.4 585.0,176.4 587.9,176.4 587.9,176.4 589.0,176.4 589.0,176.4 592.2,176.4 592.2,176.4 593.5,176.4 593.5,176.4 594.5,176.4 594.5,176.4 595.8,176.4 595.8,176.4 597.9,176.4 597.9,176.4 598.5,176.4 598.5,176.4 599.1,176.4 599.1,176.4 601.2,176.4 601.2,176.4 604.4,176.4 604.4,176.4 606.7,176.4 606.7,175.5 652.7,175.5 652.7,175.5 656.0,175.5 656.0,175.3 704.0,175.3 704.0,221.1 656.0,221.1 656.0,221.3 652.7,221.3 652.7,221.3 606.7,221.3 606.7,222.2 604.4,222.2 604.4,222.2 601.2,222.2 601.2,222.2 599.1,222.2 599.1,222.2 598.5,222.2 598.5,222.2 597.9,222.2 597.9,222.2 595.8,222.2 595.8,222.2 594.5,222.2 594.5,222.2 593.5,222.2 593.5,222.2 592.2,222.2 592.2,222.2 589.0,222.2 589.0,222.2 587.9,222.2 587.9,222.2 585.0,222.2 585.0,222.2 584.4,222.2 584.4,222.2 583.3,222.2 583.3,222.2 582.5,222.2 582.5,222.2 582.1,222.2 582.1,222.2 567.7,222.2 567.7,222.2 565.9,222.2 565.9,222.2 564.6,222.2 564.6,222.2 547.3,222.2 547.3,222.2 544.8,222.2 544.8,222.2 537.1,222.2 537.1,222.2 534.7,222.2 534.7,222.2 532.4,222.2 532.4,222.2 528.5,222.2 528.5,222.2 510.0,222.2 510.0,222.2 505.0,222.2 505.0,222.2 496.0,222.2 496.0,222.2 372.3,222.2 372.3,222.2 351.9,222.2 351.9,222.2 351.0,222.2 351.0,222.2 348.1,222.2 348.1,222.2 347.0,222.2 347.0,222.2 345.1,222.2 345.1,222.2 306.7,222.2 306.7,222.2 246.0,222.2 246.0,222.2 244.8,222.2 244.8,222.2 241.8,222.2 241.8,222.2 236.6,222.2 236.6,222.2 216.5,222.2 216.5,222.2 214.2,222.2 214.2,222.2 213.6,222.2 213.6,222.2 212.8,222.2 212.8,222.2 212.0,222.2 212.0,222.2 203.9,222.2 203.9,222.2 199.3,222.2 199.3,222.2 141.3,222.2 141.3,222.2 122.4,222.2 122.4,222.2 122.4,222.2 122.4,222.2 56.0,222.2" fill="#5b6" />
<polygon points="56.0,220.6 122.4,220.6 122.4,220.3 122.4,220.3 122.4,220.3 141.3,220.3 141.3,220.0 199.3,220.0 199.3,219.9 203.9,219.9 203.9,218.5 212.0,218.5 212.0,218.1 212.8,218.1 212.8,217.5 213.6,217.5 213.6,217.3 214.2,217.3 214.2,216.5 216.5,216.5 216.5,216.2 236.6,216.2 236.6,213.7 241.8,213.7 241.8,213.0 244.8,213.0 244.8,211.9 246.0,211.9 246.0,211.7 306.7,211.7 306.7,210.7 345.1,210.7 345.1,204.1 347.0,204.1 347.0,202.2 348.1,202.2 348.1,201.4 351.0,201.4 351.0,200.4 351.9,200.4 351.9,199.2 372.3,199.2 372.3,197.5 496.0,197.5 496.0,190.4 505.0,190.4 505.0,187.2 510.0,187.2 510.0,178.7 528.5,178.7 528.5,175.2 532.4,175.2 532.4,175.2 534.7,175.2 534.7,174.7 537.1,174.7 537.1,174.3 544.8,174.3 544.8,173.1 547.3,173.1 547.3,170.7 564.6,170.7 564.6,168.5 565.9,168.5 565.9,168.2 567.7,168.2 567.7,166.8 582.1,166.8 582.1,165.7 582.5,165.7 582.5,164.4 583.3,164.4 583.3,163.2 584.4,163.2 584.4,162.5 585.0,162.5 585.0,161.7 587.9,161.7 587.9,161.2 589.0,161.2 589.0,160.7 592.2,160.7 592.2,160.4 593.5,160.4 593.5,160.1 594.5,160.1 594.5,159.7 595.8,159.7 595.8,158.8 597.9,158.8 597.9,158.1 598.5,158.1 598.5,157.3 599.1,157.3 599.1,157.0 601.2,157.0 601.2,156.2 604.4,156.2 604.4,155.4 606.7,155.4 606.7,154.5 652.7,154.5 652.7,154.5 656.0,154.5 656.0,154.4 704.0,154.4 704.0,175.3 656.0,175.3 656.0,175.5 652.7,175.5 652.7,175.5 606.7,175.5 606.7,176.4 604.4,176.4 604.4,176.4 601.2,176.4 601.2,176.4 599.1,176.4 599.1,176.4 598.5,176.4 598.5,176.4 597.9,176.4 597.9,176.4 595.8,176.4 595.8,176.4 594.5,176.4 594.5,176.4 593.5,176.4 593.5,176.4 592.2,176.4 592.2,176.4 589.0,176.4 589.0,176.4 587.9,176.4 587.9,176.4 585.0,176.4 585.0,176.4 584.4,176.4 584.4,176.4 583.3,176.4 583.3,176.4 582.5,176.4 582.5,176.4 582.1,176.4 582.1,176.4 567.7,176.4 567.7,176.4 565.9,176.4 565.9,176.4 564.6,176.4 564.6,176.4 547.3,176.4 547.3,176.4 544.8,176.4 544.8,176.4 537.1,176.4 537.1,176.4 534.7,176.4 534.7,176.4 532.4,176.4 532.4,176.4 528.5,176.4 528.5,179.9 510.0,179.9 510.0,188.4 505.0,188.4 505.0,191.6 496.0,191.6 496.0,198.7 372.3,198.7 372.3,200.4 351.9,200.4 351.9,201.6 351.0,201.6 351.0,202.6 348.1,202.6 348.1,203.4 347.0,203.4 347.0,205.3 345.1,205.3 345.1,211.9 306.7,211.9 306.7,212.9 246.0,212.9 246.0,213.2 244.8,213.2 244.8,214.2 241.8,214.2 241.8,214.9 236.6,214.9 236.6,217.4 216.5,217.4 216.5,217.7 214.2,217.7 214.2,218.5 213.6,218.5 213.6,218.7 212.8,218.7 212.8,219.3 212.0,219.3 212.0,219.7 203.9,219.7 203.9,221.1 199.3,221.1 199.3,221.1 141.3,221.1 141.3,221.3 122.4,221.3 122.4,221.3 122.4,221.3 122.4,221.6 56.0,221.6" fill="#da4" />
<polygon points="56.0,220.5 122.4,220.5 122.4,220.3 122.4,220.3 122.4,220.3 141.3,220.3 141.3,220.0 199.3,220.0 199.3,219.8 203.9,219.8 203.9,218.5 212.0,218.5 212.0,218.0 212.8,218.0 212.8,217.5 213.6,217.5 213.6,217.2 214.2,217.2 214.2,216.4 216.5,216.4 216.5,216.2 236.6,216.2 236.6,213.6 241.8,213.6 241.8,212.9 244.8,212.9 244.8,211.9 246.0,211.9 246.0,211.7 306.7,211.7 306.7,210.7 345.1,210.7 345.1,204.1 347.0,204.1 347.0,202.2 348.1,202.2 348.1,201.3 351.0,201.3 351.0,200.4 351.9,200.4 351.9,199.2 372.3,199.2 372.3,197.5 496.0,197.5 496.0,190.4 505.0,190.4 505.0,187.1 510.0,187.1 510.0,178.6 528.5,178.6 528.5,175.1 532.4,175.1 532.4,174.4 534.7,174.4 534.7,174.0 537.1,174.0 537.1,173.5 544.8,173.5 544.8,172.3 547.3,172.3 547.3,170.0 564.6,170.0 564.6,167.8 565.9,167.8 565.9,167.5 567.7,167.5 567.7,166.1 582.1,166.1 582.1,164.9 582.5,164.9 582.5,163.7 583.3,163.7 583.3,162.5 584.4,162.5 584.4,161.7 585.0,161.7 585.0,161.0 587.9,161.0 587.9,160.5 589.0,160.5 589.0,160.0 592.2,160.0 592.2,159.6 593.5,159.6 593.5,159.4 594.5,159.4 594.5,158.9 595.8,158.9 595.8,158.0 597.9,158.0 597.9,157.4 598.5,157.4 598.5,156.6 599.1,156.6 599.1,156.3 601.2,156.3 601.2,155.4 604.4,155.4 604.4,154.7 606.7,154.7 606.7,152.3 652.7,152.3 652.7,150.1 656.0,150.1 656.0,150.0 704.0,150.0 704.0,154.4 656.0,154.4 656.0,154.5 652.7,154.5 652.7,154.5 606.7,154.5 606.7,155.4 604.4,155.4 604.4,156.2 601.2,156.2 601.2,157.0 599.1,157.0 599.1,157.3 598.5,157.3 598.5,158.1 597.9,158.1 597.9,158.8 595.8,158.8 595.8,159.7 594.5,159.7 594.5,160.1 593.5,160.1 593.5,160.4 592.2,160.4 592.2,160.7 589.0,160.7 589.0,161.2 587.9,161.2 587.9,161.7 585.0,161.7 585.0,162.5 584.4,162.5 584.4,163.2 583.3,163.2 583.3,164.4 582.5,164.4 582.5,165.7 582.1,165.7 582.1,166.8 567.7,166.8 567.7,168.2 565.9,168.2 565.9,168.5 564.6,168.5 564.6,170.7 547.3,170.7 547.3,173.1 544.8,173.1 544.8,174.3 537.1,174.3 537.1,174.7 534.7,174.7 534.7,175.2 532.4,175.2 532.4,175.2 528.5,175.2 528.5,178.7 510.0,178.7 510.0,187.2 505.0,187.2 505.0,190.4 496.0,190.4 496.0,197.5 372.3,197.5 372.3,199.2 351.9,199.2 351.9,200.4 351.0,200.4 351.0,201.4 348.1,201.4 348.1,202.2 347.0,202.2 347.0,204.1 345.1,204.1 345.1,210.7 306.7,210.7 306.7,211.7 246.0,211.7 246.0,211.9 244.8,211.9 244.8,213.0 241.8,213.0 241.8,213.7 236.6,213.7 236.6,216.2 216.5,216.2 216.5,216.5 214.2,216.5 214.2,217.3 213.6,217.3 213.6,217.5 212.8,217.5 212.8,218.1 212.0,218.1 212.0,218.5 203.9,218.5 203.9,219.9 199.3,219.9 199.3,220.0 141.3,220.0 141.3,220.3 122.4,220.3 122.4,220.3 122.4,220.3 122.4,220.6 56.0,220.6" fill="#a7d" />
<line class="axis" x1="56" y1="224" x2="704" y2="224"/>
<text x="56.0" y="242" text-anchor="start">2026-09-17</text>
<text x="656.0" y="242" text-anchor="middle">2026-09-28</text>
<text class="title" x="56" y="20">Matched decompilation: 10.513% (729,013 / 6,934,399 bytes, 111 / 500 units)</text>
<rect x="56" y="28" width="9" height="9" fill="#48d"/>
<text x="70" y="36">ProjectG</text>
<rect x="184" y="28" width="9" height="9" fill="#5b6"/>
<text x="198" y="36">Wangreal</text>
<rect x="312" y="28" width="9" height="9" fill="#da4"/>
<text x="326" y="36">Fresh</text>
<rect x="440" y="28" width="9" height="9" fill="#a7d"/>
<text x="454" y="36">shared</text>
</svg>
