<svg xmlns="http://www.w3.org/2000/svg" viewBox="0 0 720 260" role="img" aria-label="Decompilation progress over time">
<style>text{font:11px system-ui,sans-serif;fill:#666}.title{font-size:13px;font-weight:600;fill:#222}.axis{stroke:#ddd;stroke-width:1}@media (prefers-color-scheme:dark){svg{background-color:#0d1117}text{fill:#999}.title{fill:#fff}.axis{stroke:#344}}</style>
<line class="axis" x1="56" y1="224.0" x2="704" y2="224.0" opacity="0.6"/>
<text x="48" y="228.0" text-anchor="end">0.00%</text>
<line class="axis" x1="56" y1="180.0" x2="704" y2="180.0" opacity="0.6"/>
<text x="48" y="184.0" text-anchor="end">6.25%</text>
<line class="axis" x1="56" y1="136.0" x2="704" y2="136.0" opacity="0.6"/>
<text x="48" y="140.0" text-anchor="end">12.50%</text>
<line class="axis" x1="56" y1="92.0" x2="704" y2="92.0" opacity="0.6"/>
<text x="48" y="96.0" text-anchor="end">18.75%</text>
<line class="axis" x1="56" y1="48.0" x2="704" y2="48.0" opacity="0.6"/>
<text x="48" y="52.0" text-anchor="end">25.00%</text>
<polygon points="56.0,222.2 98.9,222.2 98.9,222.2 98.9,222.2 98.9,222.2 111.1,222.2 111.1,222.2 148.6,222.2 148.6,222.2 151.5,222.2 151.5,222.2 156.8,222.2 156.8,222.2 157.2,222.2 157.2,222.2 157.8,222.2 157.8,222.2 158.1,222.2 158.1,222.2 159.7,222.2 159.7,222.2 172.7,222.2 172.7,222.2 176.0,222.2 176.0,222.2 177.9,222.2 177.9,222.2 178.7,222.2 178.7,222.2 217.9,222.2 217.9,222.2 242.8,222.2 242.8,222.2 244.0,222.2 244.0,222.2 244.6,222.2 244.6,222.2 246.5,222.2 246.5,222.2 247.1,222.2 247.1,222.2 260.3,222.2 260.3,222.2 340.2,222.2 340.2,222.2 346.0,222.2 346.0,222.2 349.2,222.2 349.2,222.2 361.2,222.2 361.2,222.2 363.7,222.2 363.7,222.2 365.2,222.2 365.2,222.2 366.8,222.2 366.8,222.2 371.7,222.2 371.7,222.2 373.3,222.2 373.3,222.2 384.5,222.2 384.5,222.2 385.3,222.2 385.3,222.2 386.5,222.2 386.5,222.2 395.8,222.2 395.8,222.2 396.0,222.2 396.0,222.2 396.6,222.2 396.6,222.2 397.3,222.2 397.3,222.2 397.7,222.2 397.7,222.2 399.5,222.2 399.5,222.2 400.2,222.2 400.2,222.2 402.3,222.2 402.3,222.2 403.2,222.2 403.2,222.2 403.8,222.2 403.8,222.2 404.6,222.2 404.6,222.2 406.0,222.2 406.0,222.2 406.4,222.2 406.4,222.2 406.8,222.2 406.8,222.2 408.1,222.2 408.1,222.2 410.2,222.2 410.2,222.2 411.7,222.2 411.7,221.3 441.4,221.3 441.4,221.3 443.5,221.3 443.5,221.1 566.3,221.1 566.3,216.0 568.0,216.0 568.0,215.7 571.4,215.7 571.4,213.4 572.6,213.4 572.6,213.2 576.3,213.2 576.3,206.1 598.2,206.1 598.2,179.5 606.2,179.5 606.2,175.3 627.7,175.3 627.7,174.1 629.3,174.1 629.3,171.2 632.8,171.2 632.8,170.1 634.4,170.1 634.4,169.5 635.0,169.5 635.0,169.0 636.5,169.0 636.5,168.4 637.7,168.4 637.7,168.2 640.0,168.2 640.0,167.5 640.4,167.5 640.4,166.9 640.8,166.9 640.8,166.2 641.1,166.2 641.1,165.5 650.8,165.5 650.8,165.2 651.2,165.2 651.2,164.6 651.9,164.6 651.9,164.1 652.7,164.1 652.7,163.5 653.2,163.5 653.2,160.2 655.3,160.2 655.3,159.6 656.0,159.6 656.0,159.0 704.0,159.0 704.0,224.0 656.0,224.0 656.0,224.0 655.3,224.0 655.3,224.0 653.2,224.0 653.2,224.0 652.7,224.0 652.7,224.0 651.9,224.0 651.9,224.0 651.2,224.0 651.2,224.0 650.8,224.0 650.8,224.0 641.1,224.0 641.1,224.0 640.8,224.0 640.8,224.0 640.4,224.0 640.4,224.0 640.0,224.0 640.0,224.0 637.7,224.0 637.7,224.0 636.5,224.0 636.5,224.0 635.0,224.0 635.0,224.0 634.4,224.0 634.4,224.0 632.8,224.0 632.8,224.0 629.3,224.0 629.3,224.0 627.7,224.0 627.7,224.0 606.2,224.0 606.2,224.0 598.2,224.0 598.2,224.0 576.3,224.0 576.3,224.0 572.6,224.0 572.6,224.0 571.4,224.0 571.4,224.0 568.0,224.0 568.0,224.0 566.3,224.0 566.3,224.0 443.5,224.0 443.5,224.0 441.4,224.0 441.4,224.0 411.7,224.0 411.7,224.0 410.2,224.0 410.2,224.0 408.1,224.0 408.1,224.0 406.8,224.0 406.8,224.0 406.4,224.0 406.4,224.0 406.0,224.0 406.0,224.0 404.6,224.0 404.6,224.0 403.8,224.0 403.8,224.0 403.2,224.0 403.2,224.0 402.3,224.0 402.3,224.0 400.2,224.0 400.2,224.0 399.5,224.0 399.5,224.0 397.7,224.0 397.7,224.0 397.3,224.0 397.3,224.0 396.6,224.0 396.6,224.0 396.0,224.0 396.0,224.0 395.8,224.0 395.8,224.0 386.5,224.0 386.5,224.0 385.3,224.0 385.3,224.0 384.5,224.0 384.5,224.0 373.3,224.0 373.3,224.0 371.7,224.0 371.7,224.0 366.8,224.0 366.8,224.0 365.2,224.0 365.2,224.0 363.7,224.0 363.7,224.0 361.2,224.0 361.2,224.0 349.2,224.0 349.2,224.0 346.0,224.0 346.0,224.0 340.2,224.0 340.2,224.0 260.3,224.0 260.3,224.0 247.1,224.0 247.1,224.0 246.5,224.0 246.5,224.0 244.6,224.0 244.6,224.0 244.0,224.0 244.0,224.0 242.8,224.0 242.8,224.0 217.9,224.0 217.9,224.0 178.7,224.0 178.7,224.0 177.9,224.0 177.9,224.0 176.0,224.0 176.0,224.0 172.7,224.0 172.7,224.0 159.7,224.0 159.7,224.0 158.1,224.0 158.1,224.0 157.8,224.0 157.8,224.0 157.2,224.0 157.2,224.0 156.8,224.0 156.8,224.0 151.5,224.0 151.5,224.0 148.6,224.0 148.6,224.0 111.1,224.0 111.1,224.0 98.9,224.0 98.9,224.0 98.9,224.0 98.9,224.0 56.0,224.0" fill="#48d" />
<polygon points="56.0,221.6 98.9,221.6 98.9,221.3 98.9,221.3 98.9,221.3 111.1,221.3 111.1,221.1 148.6,221.1 148.6,221.1 151.5,221.1 151.5,219.7 156.8,219.7 156.8,219.3 157.2,219.3 157.2,218.7 157.8,218.7 157.8,218.5 158.1,218.5 158.1,217.7 159.7,217.7 159.7,217.4 172.7,217.4 172.7,214.9 176.0,214.9 176.0,214.2 177.9,214.2 177.9,213.2 178.7,213.2 178.7,212.9 217.9,212.9 217.9,211.9 242.8,211.9 242.8,205.3 244.0,205.3 244.0,203.4 244.6,203.4 244.6,202.6 246.5,202.6 246.5,201.6 247.1,201.6 247.1,200.4 260.3,200.4 260.3,198.7 340.2,198.7 340.2,191.6 346.0,191.6 346.0,188.4 349.2,188.4 349.2,179.9 361.2,179.9 361.2,176.4 363.7,176.4 363.7,176.4 365.2,176.4 365.2,176.4 366.8,176.4 366.8,176.4 371.7,176.4 371.7,176.4 373.3,176.4 373.3,176.4 384.5,176.4 384.5,176.4 385.3,176.4 385.3,176.4 386.5,176.4 386.5,176.4 395.8,176.4 395.8,176.4 396.0,176.4 396.0,176.4 396.6,176.4 396.6,176.4 397.3,176.4 397.3,176.4 397.7,176.4 397.7,176.4 399.5,176.4 399.5,176.4 400.2,176.4 400.2,176.4 402.3,176.4 402.3,176.4 403.2,176.4 403.2,176.4 403.8,176.4 403.8,176.4 404.6,176.4 404.6,176.4 406.0,176.4 406.0,176.4 406.4,176.4 406.4,176.4 406.8,176.4 406.8,176.4 408.1,176.4 408.1,176.4 410.2,176.4 410.2,176.4 411.7,176.4 411.7,175.5 441.4,175.5 441.4,175.5 443.5,175.5 443.5,175.3 566.3,175.3 566.3,170.2 568.0,170.2 568.0,170.0 571.4,170.0 571.4,167.6 572.6,167.6 572.6,167.4 576.3,167.4 576.3,160.3 598.2,160.3 598.2,133.7 606.2,133.7 606.2,129.5 627.7,129.5 627.7,128.3 629.3,128.3 629.3,125.4 632.8,125.4 632.8,124.3 634.4,124.3 634.4,123.7 635.0,123.7 635.0,123.2 636.5,123.2 636.5,122.7 637.7,122.7 637.7,122.4 640.0,122.4 640.0,121.7 640.4,121.7 640.4,121.1 640.8,121.1 640.8,120.4 641.1,120.4 641.1,119.7 650.8,119.7 650.8,119.4 651.2,119.4 651.2,118.8 651.9,118.8 651.9,118.3 652.7,118.3 652.7,117.7 653.2,117.7 653.2,114.4 655.3,114.4 655.3,113.8 656.0,113.8 656.0,113.2 704.0,113.2 704.0,159.0 656.0,159.0 656.0,159.6 655.3,159.6 655.3,160.2 653.2,160.2 653.2,163.5 652.7,163.5 652.7,164.1 651.9,164.1 651.9,164.6 651.2,164.6 651.2,165.2 650.8,165.2 650.8,165.5 641.1,165.5 641.1,166.2 640.8,166.2 640.8,166.9 640.4,166.9 640.4,167.5 640.0,167.5 640.0,168.2 637.7,168.2 637.7,168.4 636.5,168.4 636.5,169.0 635.0,169.0 635.0,169.5 634.4,169.5 634.4,170.1 632.8,170.1 632.8,171.2 629.3,171.2 629.3,174.1 627.7,174.1 627.7,175.3 606.2,175.3 606.2,179.5 598.2,179.5 598.2,206.1 576.3,206.1 576.3,213.2 572.6,213.2 572.6,213.4 571.4,213.4 571.4,215.7 568.0,215.7 568.0,216.0 566.3,216.0 566.3,221.1 443.5,221.1 443.5,221.3 441.4,221.3 441.4,221.3 411.7,221.3 411.7,222.2 410.2,222.2 410.2,222.2 408.1,222.2 408.1,222.2 406.8,222.2 406.8,222.2 406.4,222.2 406.4,222.2 406.0,222.2 406.0,222.2 404.6,222.2 404.6,222.2 403.8,222.2 403.8,222.2 403.2,222.2 403.2,222.2 402.3,222.2 402.3,222.2 400.2,222.2 400.2,222.2 399.5,222.2 399.5,222.2 397.7,222.2 397.7,222.2 397.3,222.2 397.3,222.2 396.6,222.2 396.6,222.2 396.0,222.2 396.0,222.2 395.8,222.2 395.8,222.2 386.5,222.2 386.5,222.2 385.3,222.2 385.3,222.2 384.5,222.2 384.5,222.2 373.3,222.2 373.3,222.2 371.7,222.2 371.7,222.2 366.8,222.2 366.8,222.2 365.2,222.2 365.2,222.2 363.7,222.2 363.7,222.2 361.2,222.2 361.2,222.2 349.2,222.2 349.2,222.2 346.0,222.2 346.0,222.2 340.2,222.2 340.2,222.2 260.3,222.2 260.3,222.2 247.1,222.2 247.1,222.2 246.5,222.2 246.5,222.2 244.6,222.2 244.6,222.2 244.0,222.2 244.0,222.2 242.8,222.2 242.8,222.2 217.9,222.2 217.9,222.2 178.7,222.2 178.7,222.2 177.9,222.2 177.9,222.2 176.0,222.2 176.0,222.2 172.7,222.2 172.7,222.2 159.7,222.2 159.7,222.2 158.1,222.2 158.1,222.2 157.8,222.2 157.8,222.2 157.2,222.2 157.2,222.2 156.8,222.2 156.8,222.2 151.5,222.2 151.5,222.2 148.6,222.2 148.6,222.2 111.1,222.2 111.1,222.2 98.9,222.2 98.9,222.2 98.9,222.2 98.9,222.2 56.0,222.2" fill="#5b6" />
<polygon points="56.0,220.6 98.9,220.6 98.9,220.3 98.9,220.3 98.9,220.3 111.1,220.3 111.1,220.0 148.6,220.0 148.6,219.9 151.5,219.9 151.5,218.5 156.8,218.5 156.8,218.1 157.2,218.1 157.2,217.5 157.8,217.5 157.8,217.3 158.1,217.3 158.1,216.5 159.7,216.5 159.7,216.2 172.7,216.2 172.7,213.7 176.0,213.7 176.0,213.0 177.9,213.0 177.9,211.9 178.7,211.9 178.7,211.7 217.9,211.7 217.9,210.7 242.8,210.7 242.8,204.1 244.0,204.1 244.0,202.2 244.6,202.2 244.6,201.4 246.5,201.4 246.5,200.4 247.1,200.4 247.1,199.2 260.3,199.2 260.3,197.5 340.2,197.5 340.2,190.4 346.0,190.4 346.0,187.2 349.2,187.2 349.2,178.7 361.2,178.7 361.2,175.2 363.7,175.2 363.7,175.2 365.2,175.2 365.2,174.7 366.8,174.7 366.8,174.3 371.7,174.3 371.7,173.1 373.3,173.1 373.3,170.7 384.5,170.7 384.5,168.5 385.3,168.5 385.3,168.2 386.5,168.2 386.5,166.8 395.8,166.8 395.8,165.7 396.0,165.7 396.0,164.4 396.6,164.4 396.6,163.2 397.3,163.2 397.3,162.5 397.7,162.5 397.7,161.7 399.5,161.7 399.5,161.2 400.2,161.2 400.2,160.7 402.3,160.7 402.3,160.4 403.2,160.4 403.2,160.1 403.8,160.1 403.8,159.7 404.6,159.7 404.6,158.8 406.0,158.8 406.0,158.1 406.4,158.1 406.4,157.3 406.8,157.3 406.8,157.0 408.1,157.0 408.1,156.2 410.2,156.2 410.2,155.4 411.7,155.4 411.7,154.5 441.4,154.5 441.4,154.5 443.5,154.5 443.5,154.4 566.3,154.4 566.3,149.3 568.0,149.3 568.0,149.0 571.4,149.0 571.4,146.7 572.6,146.7 572.6,146.4 576.3,146.4 576.3,139.4 598.2,139.4 598.2,112.7 606.2,112.7 606.2,108.6 627.7,108.6 627.7,107.3 629.3,107.3 629.3,104.4 632.8,104.4 632.8,103.4 634.4,103.4 634.4,102.7 635.0,102.7 635.0,102.2 636.5,102.2 636.5,101.7 637.7,101.7 637.7,101.5 640.0,101.5 640.0,100.7 640.4,100.7 640.4,100.2 640.8,100.2 640.8,99.5 641.1,99.5 641.1,98.8 650.8,98.8 650.8,98.5 651.2,98.5 651.2,97.9 651.9,97.9 651.9,97.3 652.7,97.3 652.7,96.8 653.2,96.8 653.2,93.4 655.3,93.4 655.3,92.9 656.0,92.9 656.0,92.3 704.0,92.3 704.0,113.2 656.0,113.2 656.0,113.8 655.3,113.8 655.3,114.4 653.2,114.4 653.2,117.7 652.7,117.7 652.7,118.3 651.9,118.3 651.9,118.8 651.2,118.8 651.2,119.4 650.8,119.4 650.8,119.7 641.1,119.7 641.1,120.4 640.8,120.4 640.8,121.1 640.4,121.1 640.4,121.7 640.0,121.7 640.0,122.4 637.7,122.4 637.7,122.7 636.5,122.7 636.5,123.2 635.0,123.2 635.0,123.7 634.4,123.7 634.4,124.3 632.8,124.3 632.8,125.4 629.3,125.4 629.3,128.3 627.7,128.3 627.7,129.5 606.2,129.5 606.2,133.7 598.2,133.7 598.2,160.3 576.3,160.3 576.3,167.4 572.6,167.4 572.6,167.6 571.4,167.6 571.4,170.0 568.0,170.0 568.0,170.2 566.3,170.2 566.3,175.3 443.5,175.3 443.5,175.5 441.4,175.5 441.4,175.5 411.7,175.5 411.7,176.4 410.2,176.4 410.2,176.4 408.1,176.4 408.1,176.4 406.8,176.4 406.8,176.4 406.4,176.4 406.4,176.4 406.0,176.4 406.0,176.4 404.6,176.4 404.6,176.4 403.8,176.4 403.8,176.4 403.2,176.4 403.2,176.4 402.3,176.4 402.3,176.4 400.2,176.4 400.2,176.4 399.5,176.4 399.5,176.4 397.7,176.4 397.7,176.4 397.3,176.4 397.3,176.4 396.6,176.4 396.6,176.4 396.0,176.4 396.0,176.4 395.8,176.4 395.8,176.4 386.5,176.4 386.5,176.4 385.3,176.4 385.3,176.4 384.5,176.4 384.5,176.4 373.3,176.4 373.3,176.4 371.7,176.4 371.7,176.4 366.8,176.4 366.8,176.4 365.2,176.4 365.2,176.4 363.7,176.4 363.7,176.4 361.2,176.4 361.2,179.9 349.2,179.9 349.2,188.4 346.0,188.4 346.0,191.6 340.2,191.6 340.2,198.7 260.3,198.7 260.3,200.4 247.1,200.4 247.1,201.6 246.5,201.6 246.5,202.6 244.6,202.6 244.6,203.4 244.0,203.4 244.0,205.3 242.8,205.3 242.8,211.9 217.9,211.9 217.9,212.9 178.7,212.9 178.7,213.2 177.9,213.2 177.9,214.2 176.0,214.2 176.0,214.9 172.7,214.9 172.7,217.4 159.7,217.4 159.7,217.7 158.1,217.7 158.1,218.5 157.8,218.5 157.8,218.7 157.2,218.7 157.2,219.3 156.8,219.3 156.8,219.7 151.5,219.7 151.5,221.1 148.6,221.1 148.6,221.1 111.1,221.1 111.1,221.3 98.9,221.3 98.9,221.3 98.9,221.3 98.9,221.6 56.0,221.6" fill="#da4" />
<polygon points="56.0,220.5 98.9,220.5 98.9,220.3 98.9,220.3 98.9,220.3 111.1,220.3 111.1,220.0 148.6,220.0 148.6,219.8 151.5,219.8 151.5,218.5 156.8,218.5 156.8,218.0 157.2,218.0 157.2,217.5 157.8,217.5 157.8,217.2 158.1,217.2 158.1,216.4 159.7,216.4 159.7,216.2 172.7,216.2 172.7,213.6 176.0,213.6 176.0,212.9 177.9,212.9 177.9,211.9 178.7,211.9 178.7,211.7 217.9,211.7 217.9,210.7 242.8,210.7 242.8,204.1 244.0,204.1 244.0,202.2 244.6,202.2 244.6,201.3 246.5,201.3 246.5,200.4 247.1,200.4 247.1,199.2 260.3,199.2 260.3,197.5 340.2,197.5 340.2,190.4 346.0,190.4 346.0,187.1 349.2,187.1 349.2,178.6 361.2,178.6 361.2,175.1 363.7,175.1 363.7,174.4 365.2,174.4 365.2,174.0 366.8,174.0 366.8,173.5 371.7,173.5 371.7,172.3 373.3,172.3 373.3,170.0 384.5,170.0 384.5,167.8 385.3,167.8 385.3,167.5 386.5,167.5 386.5,166.1 395.8,166.1 395.8,164.9 396.0,164.9 396.0,163.7 396.6,163.7 396.6,162.5 397.3,162.5 397.3,161.7 397.7,161.7 397.7,161.0 399.5,161.0 399.5,160.5 400.2,160.5 400.2,160.0 402.3,160.0 402.3,159.6 403.2,159.6 403.2,159.4 403.8,159.4 403.8,158.9 404.6,158.9 404.6,158.0 406.0,158.0 406.0,157.4 406.4,157.4 406.4,156.6 406.8,156.6 406.8,156.3 408.1,156.3 408.1,155.4 410.2,155.4 410.2,154.7 411.7,154.7 411.7,152.3 441.4,152.3 441.4,150.1 443.5,150.1 443.5,150.0 566.3,150.0 566.3,125.2 568.0,125.2 568.0,124.9 571.4,124.9 571.4,122.6 572.6,122.6 572.6,122.4 576.3,122.4 576.3,115.3 598.2,115.3 598.2,88.7 606.2,88.7 606.2,84.5 627.7,84.5 627.7,83.3 629.3,83.3 629.3,80.4 632.8,80.4 632.8,79.3 634.4,79.3 634.4,78.7 635.0,78.7 635.0,78.2 636.5,78.2 636.5,77.6 637.7,77.6 637.7,77.4 640.0,77.4 640.0,76.7 640.4,76.7 640.4,76.1 640.8,76.1 640.8,75.4 641.1,75.4 641.1,74.7 650.8,74.7 650.8,74.4 651.2,74.4 651.2,73.8 651.9,73.8 651.9,73.3 652.7,73.3 652.7,72.7 653.2,72.7 653.2,69.4 655.3,69.4 655.3,68.8 656.0,68.8 656.0,68.2 704.0,68.2 704.0,92.3 656.0,92.3 656.0,92.9 655.3,92.9 655.3,93.4 653.2,93.4 653.2,96.8 652.7,96.8 652.7,97.3 651.9,97.3 651.9,97.9 651.2,97.9 651.2,98.5 650.8,98.5 650.8,98.8 641.1,98.8 641.1,99.5 640.8,99.5 640.8,100.2 640.4,100.2 640.4,100.7 640.0,100.7 640.0,101.5 637.7,101.5 637.7,101.7 636.5,101.7 636.5,102.2 635.0,102.2 635.0,102.7 634.4,102.7 634.4,103.4 632.8,103.4 632.8,104.4 629.3,104.4 629.3,107.3 627.7,107.3 627.7,108.6 606.2,108.6 606.2,112.7 598.2,112.7 598.2,139.4 576.3,139.4 576.3,146.4 572.6,146.4 572.6,146.7 571.4,146.7 571.4,149.0 568.0,149.0 568.0,149.3 566.3,149.3 566.3,154.4 443.5,154.4 443.5,154.5 441.4,154.5 441.4,154.5 411.7,154.5 411.7,155.4 410.2,155.4 410.2,156.2 408.1,156.2 408.1,157.0 406.8,157.0 406.8,157.3 406.4,157.3 406.4,158.1 406.0,158.1 406.0,158.8 404.6,158.8 404.6,159.7 403.8,159.7 403.8,160.1 403.2,160.1 403.2,160.4 402.3,160.4 402.3,160.7 400.2,160.7 400.2,161.2 399.5,161.2 399.5,161.7 397.7,161.7 397.7,162.5 397.3,162.5 397.3,163.2 396.6,163.2 396.6,164.4 396.0,164.4 396.0,165.7 395.8,165.7 395.8,166.8 386.5,166.8 386.5,168.2 385.3,168.2 385.3,168.5 384.5,168.5 384.5,170.7 373.3,170.7 373.3,173.1 371.7,173.1 371.7,174.3 366.8,174.3 366.8,174.7 365.2,174.7 365.2,175.2 363.7,175.2 363.7,175.2 361.2,175.2 361.2,178.7 349.2,178.7 349.2,187.2 346.0,187.2 346.0,190.4 340.2,190.4 340.2,197.5 260.3,197.5 260.3,199.2 247.1,199.2 247.1,200.4 246.5,200.4 246.5,201.4 244.6,201.4 244.6,202.2 244.0,202.2 244.0,204.1 242.8,204.1 242.8,210.7 217.9,210.7 217.9,211.7 178.7,211.7 178.7,211.9 177.9,211.9 177.9,213.0 176.0,213.0 176.0,213.7 172.7,213.7 172.7,216.2 159.7,216.2 159.7,216.5 158.1,216.5 158.1,217.3 157.8,217.3 157.8,217.5 157.2,217.5 157.2,218.1 156.8,218.1 156.8,218.5 151.5,218.5 151.5,219.9 148.6,219.9 148.6,220.0 111.1,220.0 111.1,220.3 98.9,220.3 98.9,220.3 98.9,220.3 98.9,220.6 56.0,220.6" fill="#a7d" />
<line class="axis" x1="56" y1="224" x2="704" y2="224"/>
<text x="56.0" y="242" text-anchor="start">2026-09-17</text>
<text x="656.0" y="242" text-anchor="middle">2026-10-05</text>
<text class="title" x="56" y="20">Matched decompilation: 22.131% (1,534,668 / 6,934,399 bytes, 316 / 500 units)</text>
<rect x="56" y="28" width="9" height="9" fill="#48d"/>
<text x="70" y="36">ProjectG</text>
<rect x="184" y="28" width="9" height="9" fill="#5b6"/>
<text x="198" y="36">Wangreal</text>
<rect x="312" y="28" width="9" height="9" fill="#da4"/>
<text x="326" y="36">Fresh</text>
<rect x="440" y="28" width="9" height="9" fill="#a7d"/>
<text x="454" y="36">shared</text>
</svg>
