<svg xmlns="http://www.w3.org/2000/svg" viewBox="0 0 720 260" role="img" aria-label="Decompilation progress over time">
<style>text{font:11px system-ui,sans-serif;fill:#666}.title{font-size:13px;font-weight:600;fill:#222}.axis{stroke:#ddd;stroke-width:1}@media (prefers-color-scheme:dark){svg{background-color:#0d1117}text{fill:#999}.title{fill:#fff}.axis{stroke:#344}}</style>
<line class="axis" x1="56" y1="224.0" x2="704" y2="224.0" opacity="0.6"/>
<text x="48" y="228.0" text-anchor="end">0.00%</text>
<line class="axis" x1="56" y1="180.0" x2="704" y2="180.0" opacity="0.6"/>
<text x="48" y="184.0" text-anchor="end">6.25%</text>
<line class="axis" x1="56" y1="136.0" x2="704" y2="136.0" opacity="0.6"/>
<text x="48" y="140.0" text-anchor="end">12.50%</text>
<line class="axis" x1="56" y1="92.0" x2="704" y2="92.0" opacity="0.6"/>
<text x="48" y="96.0" text-anchor="end">18.75%</text>
<line class="axis" x1="56" y1="48.0" x2="704" y2="48.0" opacity="0.6"/>
<text x="48" y="52.0" text-anchor="end">25.00%</text>
<polygon points="56.0,222.2 105.5,222.2 105.5,222.2 105.5,222.2 105.5,222.2 119.5,222.2 119.5,222.2 162.7,222.2 162.7,222.2 166.1,222.2 166.1,222.2 172.2,222.2 172.2,222.2 172.8,222.2 172.8,222.2 173.4,222.2 173.4,222.2 173.8,222.2 173.8,222.2 175.5,222.2 175.5,222.2 190.5,222.2 190.5,222.2 194.4,222.2 194.4,222.2 196.6,222.2 196.6,222.2 197.5,222.2 197.5,222.2 242.7,222.2 242.7,222.2 271.4,222.2 271.4,222.2 272.8,222.2 272.8,222.2 273.6,222.2 273.6,222.2 275.7,222.2 275.7,222.2 276.4,222.2 276.4,222.2 291.6,222.2 291.6,222.2 383.7,222.2 383.7,222.2 390.5,222.2 390.5,222.2 394.2,222.2 394.2,222.2 408.0,222.2 408.0,222.2 410.9,222.2 410.9,222.2 412.6,222.2 412.6,222.2 414.4,222.2 414.4,222.2 420.1,222.2 420.1,222.2 421.9,222.2 421.9,222.2 434.8,222.2 434.8,222.2 435.8,222.2 435.8,222.2 437.2,222.2 437.2,222.2 447.9,222.2 447.9,222.2 448.2,222.2 448.2,222.2 448.8,222.2 448.8,222.2 449.6,222.2 449.6,222.2 450.0,222.2 450.0,222.2 452.2,222.2 452.2,222.2 453.0,222.2 453.0,222.2 455.4,222.2 455.4,222.2 456.4,222.2 456.4,222.2 457.1,222.2 457.1,222.2 458.1,222.2 458.1,222.2 459.7,222.2 459.7,222.2 460.1,222.2 460.1,222.2 460.5,222.2 460.5,222.2 462.1,222.2 462.1,222.2 464.5,222.2 464.5,222.2 466.2,222.2 466.2,221.3 500.5,221.3 500.5,221.3 502.9,221.3 502.9,221.1 644.5,221.1 644.5,216.0 646.4,216.0 646.4,215.7 650.4,215.7 650.4,213.4 651.8,213.4 651.8,213.2 656.0,213.2 656.0,206.1 704.0,206.1 704.0,224.0 656.0,224.0 656.0,224.0 651.8,224.0 651.8,224.0 650.4,224.0 650.4,224.0 646.4,224.0 646.4,224.0 644.5,224.0 644.5,224.0 502.9,224.0 502.9,224.0 500.5,224.0 500.5,224.0 466.2,224.0 466.2,224.0 464.5,224.0 464.5,224.0 462.1,224.0 462.1,224.0 460.5,224.0 460.5,224.0 460.1,224.0 460.1,224.0 459.7,224.0 459.7,224.0 458.1,224.0 458.1,224.0 457.1,224.0 457.1,224.0 456.4,224.0 456.4,224.0 455.4,224.0 455.4,224.0 453.0,224.0 453.0,224.0 452.2,224.0 452.2,224.0 450.0,224.0 450.0,224.0 449.6,224.0 449.6,224.0 448.8,224.0 448.8,224.0 448.2,224.0 448.2,224.0 447.9,224.0 447.9,224.0 437.2,224.0 437.2,224.0 435.8,224.0 435.8,224.0 434.8,224.0 434.8,224.0 421.9,224.0 421.9,224.0 420.1,224.0 420.1,224.0 414.4,224.0 414.4,224.0 412.6,224.0 412.6,224.0 410.9,224.0 410.9,224.0 408.0,224.0 408.0,224.0 394.2,224.0 394.2,224.0 390.5,224.0 390.5,224.0 383.7,224.0 383.7,224.0 291.6,224.0 291.6,224.0 276.4,224.0 276.4,224.0 275.7,224.0 275.7,224.0 273.6,224.0 273.6,224.0 272.8,224.0 272.8,224.0 271.4,224.0 271.4,224.0 242.7,224.0 242.7,224.0 197.5,224.0 197.5,224.0 196.6,224.0 196.6,224.0 194.4,224.0 194.4,224.0 190.5,224.0 190.5,224.0 175.5,224.0 175.5,224.0 173.8,224.0 173.8,224.0 173.4,224.0 173.4,224.0 172.8,224.0 172.8,224.0 172.2,224.0 172.2,224.0 166.1,224.0 166.1,224.0 162.7,224.0 162.7,224.0 119.5,224.0 119.5,224.0 105.5,224.0 105.5,224.0 105.5,224.0 105.5,224.0 56.0,224.0" fill="#48d" />
<polygon points="56.0,221.6 105.5,221.6 105.5,221.3 105.5,221.3 105.5,221.3 119.5,221.3 119.5,221.1 162.7,221.1 162.7,221.1 166.1,221.1 166.1,219.7 172.2,219.7 172.2,219.3 172.8,219.3 172.8,218.7 173.4,218.7 173.4,218.5 173.8,218.5 173.8,217.7 175.5,217.7 175.5,217.4 190.5,217.4 190.5,214.9 194.4,214.9 194.4,214.2 196.6,214.2 196.6,213.2 197.5,213.2 197.5,212.9 242.7,212.9 242.7,211.9 271.4,211.9 271.4,205.3 272.8,205.3 272.8,203.4 273.6,203.4 273.6,202.6 275.7,202.6 275.7,201.6 276.4,201.6 276.4,200.4 291.6,200.4 291.6,198.7 383.7,198.7 383.7,191.6 390.5,191.6 390.5,188.4 394.2,188.4 394.2,179.9 408.0,179.9 408.0,176.4 410.9,176.4 410.9,176.4 412.6,176.4 412.6,176.4 414.4,176.4 414.4,176.4 420.1,176.4 420.1,176.4 421.9,176.4 421.9,176.4 434.8,176.4 434.8,176.4 435.8,176.4 435.8,176.4 437.2,176.4 437.2,176.4 447.9,176.4 447.9,176.4 448.2,176.4 448.2,176.4 448.8,176.4 448.8,176.4 449.6,176.4 449.6,176.4 450.0,176.4 450.0,176.4 452.2,176.4 452.2,176.4 453.0,176.4 453.0,176.4 455.4,176.4 455.4,176.4 456.4,176.4 456.4,176.4 457.1,176.4 457.1,176.4 458.1,176.4 458.1,176.4 459.7,176.4 459.7,176.4 460.1,176.4 460.1,176.4 460.5,176.4 460.5,176.4 462.1,176.4 462.1,176.4 464.5,176.4 464.5,176.4 466.2,176.4 466.2,175.5 500.5,175.5 500.5,175.5 502.9,175.5 502.9,175.3 644.5,175.3 644.5,170.2 646.4,170.2 646.4,170.0 650.4,170.0 650.4,167.6 651.8,167.6 651.8,167.4 656.0,167.4 656.0,160.3 704.0,160.3 704.0,206.1 656.0,206.1 656.0,213.2 651.8,213.2 651.8,213.4 650.4,213.4 650.4,215.7 646.4,215.7 646.4,216.0 644.5,216.0 644.5,221.1 502.9,221.1 502.9,221.3 500.5,221.3 500.5,221.3 466.2,221.3 466.2,222.2 464.5,222.2 464.5,222.2 462.1,222.2 462.1,222.2 460.5,222.2 460.5,222.2 460.1,222.2 460.1,222.2 459.7,222.2 459.7,222.2 458.1,222.2 458.1,222.2 457.1,222.2 457.1,222.2 456.4,222.2 456.4,222.2 455.4,222.2 455.4,222.2 453.0,222.2 453.0,222.2 452.2,222.2 452.2,222.2 450.0,222.2 450.0,222.2 449.6,222.2 449.6,222.2 448.8,222.2 448.8,222.2 448.2,222.2 448.2,222.2 447.9,222.2 447.9,222.2 437.2,222.2 437.2,222.2 435.8,222.2 435.8,222.2 434.8,222.2 434.8,222.2 421.9,222.2 421.9,222.2 420.1,222.2 420.1,222.2 414.4,222.2 414.4,222.2 412.6,222.2 412.6,222.2 410.9,222.2 410.9,222.2 408.0,222.2 408.0,222.2 394.2,222.2 394.2,222.2 390.5,222.2 390.5,222.2 383.7,222.2 383.7,222.2 291.6,222.2 291.6,222.2 276.4,222.2 276.4,222.2 275.7,222.2 275.7,222.2 273.6,222.2 273.6,222.2 272.8,222.2 272.8,222.2 271.4,222.2 271.4,222.2 242.7,222.2 242.7,222.2 197.5,222.2 197.5,222.2 196.6,222.2 196.6,222.2 194.4,222.2 194.4,222.2 190.5,222.2 190.5,222.2 175.5,222.2 175.5,222.2 173.8,222.2 173.8,222.2 173.4,222.2 173.4,222.2 172.8,222.2 172.8,222.2 172.2,222.2 172.2,222.2 166.1,222.2 166.1,222.2 162.7,222.2 162.7,222.2 119.5,222.2 119.5,222.2 105.5,222.2 105.5,222.2 105.5,222.2 105.5,222.2 56.0,222.2" fill="#5b6" />
<polygon points="56.0,220.6 105.5,220.6 105.5,220.3 105.5,220.3 105.5,220.3 119.5,220.3 119.5,220.0 162.7,220.0 162.7,219.9 166.1,219.9 166.1,218.5 172.2,218.5 172.2,218.1 172.8,218.1 172.8,217.5 173.4,217.5 173.4,217.3 173.8,217.3 173.8,216.5 175.5,216.5 175.5,216.2 190.5,216.2 190.5,213.7 194.4,213.7 194.4,213.0 196.6,213.0 196.6,211.9 197.5,211.9 197.5,211.7 242.7,211.7 242.7,210.7 271.4,210.7 271.4,204.1 272.8,204.1 272.8,202.2 273.6,202.2 273.6,201.4 275.7,201.4 275.7,200.4 276.4,200.4 276.4,199.2 291.6,199.2 291.6,197.5 383.7,197.5 383.7,190.4 390.5,190.4 390.5,187.2 394.2,187.2 394.2,178.7 408.0,178.7 408.0,175.2 410.9,175.2 410.9,175.2 412.6,175.2 412.6,174.7 414.4,174.7 414.4,174.3 420.1,174.3 420.1,173.1 421.9,173.1 421.9,170.7 434.8,170.7 434.8,168.5 435.8,168.5 435.8,168.2 437.2,168.2 437.2,166.8 447.9,166.8 447.9,165.7 448.2,165.7 448.2,164.4 448.8,164.4 448.8,163.2 449.6,163.2 449.6,162.5 450.0,162.5 450.0,161.7 452.2,161.7 452.2,161.2 453.0,161.2 453.0,160.7 455.4,160.7 455.4,160.4 456.4,160.4 456.4,160.1 457.1,160.1 457.1,159.7 458.1,159.7 458.1,158.8 459.7,158.8 459.7,158.1 460.1,158.1 460.1,157.3 460.5,157.3 460.5,157.0 462.1,157.0 462.1,156.2 464.5,156.2 464.5,155.4 466.2,155.4 466.2,154.5 500.5,154.5 500.5,154.5 502.9,154.5 502.9,154.4 644.5,154.4 644.5,149.3 646.4,149.3 646.4,149.0 650.4,149.0 650.4,146.7 651.8,146.7 651.8,146.4 656.0,146.4 656.0,139.4 704.0,139.4 704.0,160.3 656.0,160.3 656.0,167.4 651.8,167.4 651.8,167.6 650.4,167.6 650.4,170.0 646.4,170.0 646.4,170.2 644.5,170.2 644.5,175.3 502.9,175.3 502.9,175.5 500.5,175.5 500.5,175.5 466.2,175.5 466.2,176.4 464.5,176.4 464.5,176.4 462.1,176.4 462.1,176.4 460.5,176.4 460.5,176.4 460.1,176.4 460.1,176.4 459.7,176.4 459.7,176.4 458.1,176.4 458.1,176.4 457.1,176.4 457.1,176.4 456.4,176.4 456.4,176.4 455.4,176.4 455.4,176.4 453.0,176.4 453.0,176.4 452.2,176.4 452.2,176.4 450.0,176.4 450.0,176.4 449.6,176.4 449.6,176.4 448.8,176.4 448.8,176.4 448.2,176.4 448.2,176.4 447.9,176.4 447.9,176.4 437.2,176.4 437.2,176.4 435.8,176.4 435.8,176.4 434.8,176.4 434.8,176.4 421.9,176.4 421.9,176.4 420.1,176.4 420.1,176.4 414.4,176.4 414.4,176.4 412.6,176.4 412.6,176.4 410.9,176.4 410.9,176.4 408.0,176.4 408.0,179.9 394.2,179.9 394.2,188.4 390.5,188.4 390.5,191.6 383.7,191.6 383.7,198.7 291.6,198.7 291.6,200.4 276.4,200.4 276.4,201.6 275.7,201.6 275.7,202.6 273.6,202.6 273.6,203.4 272.8,203.4 272.8,205.3 271.4,205.3 271.4,211.9 242.7,211.9 242.7,212.9 197.5,212.9 197.5,213.2 196.6,213.2 196.6,214.2 194.4,214.2 194.4,214.9 190.5,214.9 190.5,217.4 175.5,217.4 175.5,217.7 173.8,217.7 173.8,218.5 173.4,218.5 173.4,218.7 172.8,218.7 172.8,219.3 172.2,219.3 172.2,219.7 166.1,219.7 166.1,221.1 162.7,221.1 162.7,221.1 119.5,221.1 119.5,221.3 105.5,221.3 105.5,221.3 105.5,221.3 105.5,221.6 56.0,221.6" fill="#da4" />
<polygon points="56.0,220.5 105.5,220.5 105.5,220.3 105.5,220.3 105.5,220.3 119.5,220.3 119.5,220.0 162.7,220.0 162.7,219.8 166.1,219.8 166.1,218.5 172.2,218.5 172.2,218.0 172.8,218.0 172.8,217.5 173.4,217.5 173.4,217.2 173.8,217.2 173.8,216.4 175.5,216.4 175.5,216.2 190.5,216.2 190.5,213.6 194.4,213.6 194.4,212.9 196.6,212.9 196.6,211.9 197.5,211.9 197.5,211.7 242.7,211.7 242.7,210.7 271.4,210.7 271.4,204.1 272.8,204.1 272.8,202.2 273.6,202.2 273.6,201.3 275.7,201.3 275.7,200.4 276.4,200.4 276.4,199.2 291.6,199.2 291.6,197.5 383.7,197.5 383.7,190.4 390.5,190.4 390.5,187.1 394.2,187.1 394.2,178.6 408.0,178.6 408.0,175.1 410.9,175.1 410.9,174.4 412.6,174.4 412.6,174.0 414.4,174.0 414.4,173.5 420.1,173.5 420.1,172.3 421.9,172.3 421.9,170.0 434.8,170.0 434.8,167.8 435.8,167.8 435.8,167.5 437.2,167.5 437.2,166.1 447.9,166.1 447.9,164.9 448.2,164.9 448.2,163.7 448.8,163.7 448.8,162.5 449.6,162.5 449.6,161.7 450.0,161.7 450.0,161.0 452.2,161.0 452.2,160.5 453.0,160.5 453.0,160.0 455.4,160.0 455.4,159.6 456.4,159.6 456.4,159.4 457.1,159.4 457.1,158.9 458.1,158.9 458.1,158.0 459.7,158.0 459.7,157.4 460.1,157.4 460.1,156.6 460.5,156.6 460.5,156.3 462.1,156.3 462.1,155.4 464.5,155.4 464.5,154.7 466.2,154.7 466.2,152.3 500.5,152.3 500.5,150.1 502.9,150.1 502.9,150.0 644.5,150.0 644.5,125.2 646.4,125.2 646.4,124.9 650.4,124.9 650.4,122.6 651.8,122.6 651.8,122.4 656.0,122.4 656.0,115.3 704.0,115.3 704.0,139.4 656.0,139.4 656.0,146.4 651.8,146.4 651.8,146.7 650.4,146.7 650.4,149.0 646.4,149.0 646.4,149.3 644.5,149.3 644.5,154.4 502.9,154.4 502.9,154.5 500.5,154.5 500.5,154.5 466.2,154.5 466.2,155.4 464.5,155.4 464.5,156.2 462.1,156.2 462.1,157.0 460.5,157.0 460.5,157.3 460.1,157.3 460.1,158.1 459.7,158.1 459.7,158.8 458.1,158.8 458.1,159.7 457.1,159.7 457.1,160.1 456.4,160.1 456.4,160.4 455.4,160.4 455.4,160.7 453.0,160.7 453.0,161.2 452.2,161.2 452.2,161.7 450.0,161.7 450.0,162.5 449.6,162.5 449.6,163.2 448.8,163.2 448.8,164.4 448.2,164.4 448.2,165.7 447.9,165.7 447.9,166.8 437.2,166.8 437.2,168.2 435.8,168.2 435.8,168.5 434.8,168.5 434.8,170.7 421.9,170.7 421.9,173.1 420.1,173.1 420.1,174.3 414.4,174.3 414.4,174.7 412.6,174.7 412.6,175.2 410.9,175.2 410.9,175.2 408.0,175.2 408.0,178.7 394.2,178.7 394.2,187.2 390.5,187.2 390.5,190.4 383.7,190.4 383.7,197.5 291.6,197.5 291.6,199.2 276.4,199.2 276.4,200.4 275.7,200.4 275.7,201.4 273.6,201.4 273.6,202.2 272.8,202.2 272.8,204.1 271.4,204.1 271.4,210.7 242.7,210.7 242.7,211.7 197.5,211.7 197.5,211.9 196.6,211.9 196.6,213.0 194.4,213.0 194.4,213.7 190.5,213.7 190.5,216.2 175.5,216.2 175.5,216.5 173.8,216.5 173.8,217.3 173.4,217.3 173.4,217.5 172.8,217.5 172.8,218.1 172.2,218.1 172.2,218.5 166.1,218.5 166.1,219.9 162.7,219.9 162.7,220.0 119.5,220.0 119.5,220.3 105.5,220.3 105.5,220.3 105.5,220.3 105.5,220.6 56.0,220.6" fill="#a7d" />
<line class="axis" x1="56" y1="224" x2="704" y2="224"/>
<text x="56.0" y="242" text-anchor="start">2026-09-17</text>
<text x="656.0" y="242" text-anchor="middle">2026-10-03</text>
<text class="title" x="56" y="20">Matched decompilation: 15.438% (1,070,516 / 6,934,399 bytes, 215 / 500 units)</text>
<rect x="56" y="28" width="9" height="9" fill="#48d"/>
<text x="70" y="36">ProjectG</text>
<rect x="184" y="28" width="9" height="9" fill="#5b6"/>
<text x="198" y="36">Wangreal</text>
<rect x="312" y="28" width="9" height="9" fill="#da4"/>
<text x="326" y="36">Fresh</text>
<rect x="440" y="28" width="9" height="9" fill="#a7d"/>
<text x="454" y="36">shared</text>
</svg>
